<?xml version="1.0" standalone="no"?><!DOCTYPE svg PUBLIC "-//W3C//DTD SVG 1.1//EN" "http://www.w3.org/Graphics/SVG/1.1/DTD/svg11.dtd"><svg class="icon" width="200px" height="200.00px" viewBox="0 0 1024 1024" version="1.1" xmlns="http://www.w3.org/2000/svg"><path fill="#000000" d="M735.99 681.062V521.07c0-17.673 14.326-32 31.998-32s31.999 14.327 31.999 32V681.06h159.99c17.673 0 32 14.327 32 32s-14.327 31.998-32 31.998H799.987v159.992c0 17.672-14.326 31.999-31.999 31.999s-31.999-14.327-31.999-32V745.06H575.997c-17.673 0-32-14.326-32-31.999s14.327-31.999 32-31.999h159.992z m255.987-287.987c0 17.673-14.327 32-32 32s-31.998-14.327-31.998-32V169.087c0-17.672-14.326-31.999-31.999-31.999H128.02c-17.673 0-32 14.327-32 31.999v511.975c0 17.673 14.327 32 32 32h127.994c35.345 0 63.996 28.652 63.996 63.996v93.138l95.996-74.663c8.643-6.723 21.1-5.166 27.821 3.478a19.827 19.827 0 0 1 4.176 12.172v24.888a31.997 31.997 0 0 1-12.353 25.258l-102.172 79.467c-20.924 16.275-51.08 12.505-67.355-8.42a47.994 47.994 0 0 1-10.11-29.468v-125.85H128.019c-53.017 0-95.996-42.98-95.996-95.996V169.087c0-53.016 42.98-95.995 95.996-95.995H895.98c53.017 0 95.996 42.979 95.996 95.995v223.988z" /></svg>