<?xml version="1.0" standalone="no"?><!DOCTYPE svg PUBLIC "-//W3C//DTD SVG 1.1//EN" "http://www.w3.org/Graphics/SVG/1.1/DTD/svg11.dtd"><svg class="icon" width="200px" height="200.00px" viewBox="0 0 1024 1024" version="1.1" xmlns="http://www.w3.org/2000/svg"><path fill="#000000" d="M512 95.353c4.953 0 14.476 1.217 22.624 9.371l86.621 86.623a64.008 64.008 0 0 0 45.256 18.745h119.564c17.648 0 31.999 14.355 31.999 31.999v119.564a64.004 64.004 0 0 0 18.74 45.252l82.473 82.467c8.147 8.153 9.366 17.675 9.366 22.625s-1.219 14.47-9.374 22.626l-82.465 82.465a64.003 64.003 0 0 0-18.741 45.253v123.722c0 17.644-14.351 31.999-32 31.999H662.345a64.008 64.008 0 0 0-45.256 18.745l-82.457 82.464c-8.155 8.156-17.678 9.373-22.631 9.373s-14.469-1.217-22.624-9.372l-82.465-82.465a64.012 64.012 0 0 0-45.256-18.745H242.09c-17.648 0-32-14.354-32-32V666.503a64.002 64.002 0 0 0-18.74-45.252l-86.629-86.625c-8.147-8.153-9.366-17.675-9.366-22.625s1.219-14.47 9.374-22.627l86.621-86.624a64.002 64.002 0 0 0 18.74-45.252V242.091c0-17.644 14.352-32 32-32h115.408a64.008 64.008 0 0 0 45.256-18.744l86.613-86.62c8.156-8.157 17.68-9.374 22.632-9.374m0-63.998c-24.57 0-49.138 9.373-67.88 28.116l-86.62 86.624H242.09c-53.013 0-95.995 42.98-95.995 95.996v115.405l-86.62 86.624c-37.491 37.489-37.491 98.27 0 135.758l86.62 86.624v119.563c0 53.016 42.982 95.995 95.996 95.995h119.564l82.465 82.465c18.74 18.744 43.31 28.117 67.88 28.117 24.57 0 49.138-9.373 67.88-28.117l82.465-82.465h123.721c53.02 0 95.995-42.979 95.995-95.995V662.343l82.465-82.465c37.491-37.489 37.491-98.27 0-135.758l-82.465-82.465V242.09c0-53.017-42.974-95.996-95.995-95.996H666.5l-86.621-86.624c-18.74-18.743-43.31-28.116-67.879-28.116zM326.642 518.933l97.24 72.218c8.24 6.121 19.675 5.503 27.209-1.472l253.534-234.697a21.334 21.334 0 0 1 22.826-3.983l5.006 2.126c7.15 3.035 10.487 11.29 7.453 18.442a14.085 14.085 0 0 1-2.276 3.667L458.774 700.02c-7.675 8.939-21.143 9.963-30.081 2.288a21.473 21.473 0 0 1-1.791-1.728L288.01 549.86c-6.65-7.216-6.191-18.458 1.025-25.108a17.758 17.758 0 0 1 4.884-3.196l11.411-5.022a21.333 21.333 0 0 1 21.311 2.399z" /></svg>