<?xml version="1.0" standalone="no"?><!DOCTYPE svg PUBLIC "-//W3C//DTD SVG 1.1//EN" "http://www.w3.org/Graphics/SVG/1.1/DTD/svg11.dtd"><svg class="icon" width="200px" height="200.00px" viewBox="0 0 1024 1024" version="1.1" xmlns="http://www.w3.org/2000/svg"><path fill="#000000" d="M599.05 771.061H419.497c-2.681 0-5.363-0.447-7.896-1.416-12.142-4.469-48.343-33.593-115.717-101.9-163.726-165.96-150.876-309.274-150.169-315.233-0.148-161.193 161.23-287.822 362.908-287.822 201.639 0 363.613 126.257 366.33 290.131 0.15 9.014 11.92 144.582-151.806 310.542-67.412 68.307-104.097 99.814-116.201 104.283-2.533 0.97-5.177 1.415-7.896 1.415z m-177.43-35.978l173.409 0.595c8.826-6.926 35.418-30.912 102.495-98.92C845.978 486.368 839.497 361.45 839.35 360.26c-0.15-141.379-154.936-258.623-331.323-258.623-176.426 0-325.365 116.35-325.365 255.048-0.298 3.798-11.212 129.832 135.866 278.882m241.379 331.698H458.492c-10.876 0-20.224-7.674-22.384-18.326l-26.144-118.66c-1.417-6.776 0.297-13.778 4.655-19.068 4.357-5.364 10.838-8.49 17.764-8.49h153.223c6.89 0 13.408 3.126 17.729 8.49 4.394 5.29 6.107 12.292 4.692 19.069l-25.699 118.66c-2.234 10.651-11.546 18.325-22.421 18.325z m-94.785-34.937h87.001l18.287-94.97-123.948 0.595M488.175 770.688C447.578 584.393 472.42 115.714 473.5 95.825l38.064 2.086c-0.261 4.768-25.625 483.428 13.928 664.659l-37.318 8.118z m-60.224-7.299c-2.196-5.513-54.488-135.942-69.98-180.412-11.173-32.03-32.254-97.057-41.193-130.875-25.474-96.537-21.899-186.22 10.95-274.266 20.858-55.94 55.01-91.099 56.463-92.588l27.225 26.74c-0.298 0.3-30.056 31.211-48.008 79.18-29.945 80.374-33.148 162.535-9.758 251.176 8.343 31.732 29.124 95.94 40.297 128.046 15.27 43.648 68.902 177.505 69.423 178.844L427.95 763.39z m133.372-2.235l-35.904-12.887c0.819-2.309 82.458-229.87 101.825-317.096 20.894-94.079 17.654-178.846-9.609-251.92-17.802-47.746-40.074-71.284-40.298-71.508l27.337-26.59c1.118 1.116 27.86 28.826 48.716 84.766 29.868 80.15 33.593 172.142 11.097 273.52-19.886 89.536-99.775 312.329-103.164 321.715zM671.976 695l-36.839 3.07c206.638-286.501 63.269-550.832 64.47-548.833l32.744-6.822C726.727 133.02 895.46 393.264 671.976 695z" /></svg>