<?xml version="1.0" standalone="no"?><!DOCTYPE svg PUBLIC "-//W3C//DTD SVG 1.1//EN" "http://www.w3.org/Graphics/SVG/1.1/DTD/svg11.dtd"><svg class="icon" width="200px" height="200.00px" viewBox="0 0 1024 1024" version="1.1" xmlns="http://www.w3.org/2000/svg"><path fill="#000000" d="M860.415 207.449H509.334c0-52.808-43.004-95.812-95.812-95.812h-63.817c-52.809 0-95.812 43.004-95.812 95.812h-95.468c-52.808 0-95.812 43.004-95.812 95.812v510.538c0 52.808 43.004 95.812 95.812 95.812h701.99c52.808 0 95.811-43.004 95.811-95.812V303.26c-0.172-52.808-43.175-95.812-95.811-95.812zM509.334 749.982c-105.617 0-191.452-85.836-191.452-191.452s85.835-191.452 191.452-191.452 191.451 85.835 191.451 191.452-85.835 191.452-191.451 191.452z m303.089-319.087c-26.49 0-47.82-21.501-47.82-47.82s21.501-47.82 47.82-47.82c26.49 0 47.82 21.502 47.82 47.82s-21.33 47.82-47.82 47.82z" /></svg>