<?xml version="1.0" standalone="no"?><!DOCTYPE svg PUBLIC "-//W3C//DTD SVG 1.1//EN" "http://www.w3.org/Graphics/SVG/1.1/DTD/svg11.dtd"><svg class="icon" width="200px" height="200.00px" viewBox="0 0 1024 1024" version="1.1" xmlns="http://www.w3.org/2000/svg"><path fill="#000000" d="M830.656 158.253H510.71c0-52.98-43.004-95.984-95.984-95.984h-63.99c-52.98 0-95.983 43.004-95.983 95.984h-95.984c-52.98 0-95.984 43.004-95.984 95.984V766.15c0 52.98 43.004 95.984 95.984 95.984h417.822c9.117 0 17.718-3.957 23.91-10.665 6.02-6.709 8.945-15.825 7.913-24.942-0.86-8.429-1.548-16.858-1.548-25.458 0-141.568 132.107-254.581 279.867-216.566 9.633 2.408 19.781 0.344 27.522-5.677a32.032 32.032 0 0 0 12.385-25.286V254.237c0-52.98-43.004-95.984-95.984-95.984z m-351.94 543.909c-105.961 0-191.968-86.18-191.968-191.968s86.007-191.968 191.967-191.968 191.968 86.007 191.968 191.968-86.18 191.968-191.968 191.968z m303.948-319.947c-26.49 0-47.992-21.501-47.992-47.992s21.502-47.992 47.992-47.992 47.992 21.502 47.992 47.992-21.502 47.992-47.992 47.992z m47.992 257.85c-88.415 0-159.973 71.557-159.973 159.973 0 88.415 71.558 159.973 159.973 159.973S990.63 888.453 990.63 800.038c0-88.416-71.558-159.973-159.973-159.973z m63.99 190.075H862.65v31.995c0 17.717-14.277 31.994-31.995 31.994s-31.994-14.277-31.994-31.994V830.14h-31.995c-17.718 0-31.995-14.277-31.995-31.995s14.277-31.994 31.995-31.994h31.995v-31.995c0-17.717 14.277-31.994 31.994-31.994s31.995 14.277 31.995 31.994v31.995h31.994c17.718 0 31.995 14.277 31.995 31.994 0 17.718-14.277 31.995-31.995 31.995z" /></svg>