<?xml version="1.0" standalone="no"?><!DOCTYPE svg PUBLIC "-//W3C//DTD SVG 1.1//EN" "http://www.w3.org/Graphics/SVG/1.1/DTD/svg11.dtd"><svg class="icon" width="200px" height="153.75px" viewBox="0 0 1332 1024" version="1.1" xmlns="http://www.w3.org/2000/svg"><path fill="#000000" d="M1073.749 344.714H305.075c-64.019 0-115.915 47.827-115.915 106.825v403.636C189.16 914.174 241.058 962 305.075 962h770.437s-9.404-22.101-9.701-34.128c-0.313-12.672 23.347-37.678 23.347-37.678v-37.679s-23.347-25.002-23.347-37.679 23.347-37.679 23.347-37.679v-37.679s-23.347-25.002-23.347-37.679c0-12.678 23.347-37.679 23.347-37.679v-37.679s-23.347-25.002-23.347-37.679 23.347-37.679 23.347-37.679v-37.679s-23.347-25.003-23.347-37.679 23.347-37.679 23.347-37.679v-37.677s-23.347-25.002-23.347-37.679c0-12.679 7.938-17.979 7.938-17.979z m-48.091 48.551v44.784s-23.347 25.003-23.347 37.679c0 12.677 23.347 37.679 23.347 37.679v37.679s-23.347 25.001-23.347 37.679c0 12.677 23.347 37.678 23.347 37.678v37.679s-23.347 25.002-23.347 37.679c0 12.678 23.347 37.679 23.347 37.679v37.679s-23.347 25.002-23.347 37.679 23.347 37.679 23.347 37.679v39.254l-7.638 21.403-719.773-0.001c-25.136 0-56.224-33.877-56.224-72.098V437.963c1.323-15.903 21.828-44.526 42.334-44.526l741.301-0.17z m-379.921 336.37c-0.016 0-0.031 0.007-0.047 0.007v-0.275h-91.328V673.85h91.329v-0.295c0.016 0 0.031 0.006 0.047 0.006 10.94 0 19.808-8.869 19.808-19.808s-8.869-19.808-19.808-19.808c-0.016 0-0.031 0.007-0.047 0.007v-0.007h-77.772l85.277-157.072c3.114-4.237 5.014-9.419 5.014-15.081 0-14.123-11.449-25.572-25.57-25.572-11.046 0-20.37 7.043-23.945 16.853h-0.188S534.748 597.119 531.34 606.84h-1.023c-4.775-12.108-80.586-153.767-80.586-153.767h-0.192c-3.469-9.795-12.72-16.853-23.705-16.853-13.941 0-25.241 11.301-25.241 25.241a25.114 25.114 0 0 0 4.304 14.1l-0.127 0.067 84.868 158.315h-79.305c-10.94 0-19.808 8.869-19.808 19.808s8.869 19.808 19.808 19.808v0.29h94.142v55.517h-94.142v0.271c-10.94 0-19.808 8.869-19.808 19.808 0 10.942 8.869 19.808 19.808 19.808v0.275h94.142v79.819h0.543a24.984 24.984 0 0 0-0.524 5.07c0 13.739 11.138 24.878 24.879 24.878 13.739 0 24.878-11.138 24.878-24.878 0-1.738-0.185-3.432-0.523-5.07h0.636v-79.819h91.329v-0.279c0.017 0 0.031 0.007 0.048 0.007 10.94 0 19.808-8.869 19.808-19.808-0.005-10.942-8.873-19.811-19.813-19.811z m160.965-279.6c0-12.354 12.189-22.37 27.226-22.37 15.037 0 27.226 10.016 27.226 22.37v33.4c0 12.354-12.189 22.37-27.226 22.37-15.037 0-27.226-10.016-27.226-22.37v-33.4z m0 123.341c0-12.355 12.189-22.37 27.226-22.37 15.037 0 27.226 10.015 27.226 22.37v33.399c0 12.355-12.189 22.37-27.226 22.37-15.037 0-27.226-10.015-27.226-22.37v-33.399z m0 123.339c0-12.354 12.189-22.37 27.226-22.37 15.037 0 27.226 10.016 27.226 22.37v33.4c0 12.354-12.189 22.37-27.226 22.37-15.037 0-27.226-10.016-27.226-22.37v-33.4z m0 123.34c0-12.355 12.189-22.37 27.226-22.37 15.037 0 27.226 10.015 27.226 22.37v33.4c0 12.354-12.189 22.369-27.226 22.369-15.037 0-27.226-10.015-27.226-22.369v-33.4zM376.234 310.308l22.747-59.906c6.881-14.397 33.688-27.232 52.86-19.953l210.465 79.859h157.122L485.206 183.401c-59.849-22.726-125.344 3.565-146.287 58.719l-25.891 68.187h63.205z m185.118-136.707l41.214-48.116c11.349-11.217 40.92-14.22 56.494-0.879l177.95 152.35 88.957 33.352h35.718L706.383 91.631c-48.621-41.646-119.147-39.083-157.527 5.726l-46.392 54.161 58.889 22.081z" /></svg>