<?xml version="1.0" standalone="no"?><!DOCTYPE svg PUBLIC "-//W3C//DTD SVG 1.1//EN" "http://www.w3.org/Graphics/SVG/1.1/DTD/svg11.dtd"><svg class="icon" width="200px" height="200.00px" viewBox="0 0 1024 1024" version="1.1" xmlns="http://www.w3.org/2000/svg"><path fill="#000000" d="M937.77 141.952c0-89.173-212.394-135.808-422.143-135.808S93.525 52.821 93.525 141.952c0 0.512 0.214 0.981 0.214 1.45 0 0.427-0.171 0.811-0.128 1.28l72.32 775.425c0 11.221 5.205 21.077 13.653 29.994 0.725 1.067 1.195 2.262 2.176 3.2 1.024 1.024 2.304 1.494 3.456 2.262 56.107 47.445 223.573 61.312 330.453 61.312 129.878 0 349.739-20.395 349.654-94.848l72.405-777.387c0.043-0.427-0.128-0.81-0.128-1.28 0-0.427 0.17-0.896 0.17-1.408z m-112.98 756.01l-96.769-97.791 117.547-125.398-20.779 223.19zM515.67 646.23L668.8 800.94 515.627 964.395l-153.515-163.03L515.669 646.23zM332.842 770.304l-144.214-153.13 149.12-150.657 147.883 149.419-152.79 154.368z m212.821-154.368l148.437-149.973 148.694 149.376-144.811 154.496-152.32-153.899zM515.669 585.6L367.787 436.181 515.712 286.72l148.31 148.992L515.668 585.6z m50.347-308.821c131.03-4.694 255.957-27.606 322.347-67.755L694.059 405.376 566.016 276.779zM337.749 405.845L142.976 209.067c66.432 40.149 191.403 63.061 322.517 67.754L337.75 405.845z m-29.994 30.336L176 569.301l-27.35-293.888 159.105 160.768zM186.027 676.608L302.848 800.64l-96.213 97.195-20.608-221.227z m146.048 155.136l133.248 141.525c-116.608-4.224-197.846-22.4-234.667-39.04l101.419-102.485z m366.762-0.427l102.144 103.211c-36.693 16.299-118.101 34.517-235.178 38.741l133.034-141.952z m156.672-263.68l-131.413-132.01 158.55-160.214-27.137 292.224zM515.627 48.811c231.466 0 379.221 55.082 379.434 93.056l-0.042 0.298c-0.555 37.974-148.139 92.928-379.264 92.928h-0.342c-231.082 0-378.624-54.954-379.178-92.885l-0.043-0.341c0.256-37.974 148.01-93.056 379.435-93.056z" /></svg>