<?xml version="1.0" standalone="no"?><!DOCTYPE svg PUBLIC "-//W3C//DTD SVG 1.1//EN" "http://www.w3.org/Graphics/SVG/1.1/DTD/svg11.dtd"><svg class="icon" width="200px" height="200.00px" viewBox="0 0 1024 1024" version="1.1" xmlns="http://www.w3.org/2000/svg"><path fill="#000000" d="M797.76 686.753c0.058 65.555-24.42 101.029-33.951 112.399a388.842 388.842 0 0 1-124.842 71.416c22.934-42.311 5.392-92.551-0.684-107.202-10.334-24.888-44.457-67.432-101.4-126.463-15.178-15.784-14.201-27.895-8.751-63.876l0.606-4.065c3.711-24.65 9.882-39.223 93.802-52.389 42.662-6.68 53.873 10.159 69.424 33.482a527.187 527.187 0 0 0 5.174 7.656c14.788 21.333 25.708 26.215 42.254 33.638 7.401 3.32 16.644 7.501 29.027 14.454 29.34 16.566 29.34 35.28 29.34 76.3v4.65zM511.744 129.92c59.852 0 116.539 13.478 167.153 37.583-27.8 17.386-67.766 44.576-84.213 66.845-6.094 8.244-11.33 16.057-16.175 23.246-16.074 23.908-23.79 34.574-38.598 36.411-7.345 0.899-17.19 0.273-27.641-0.39-27.953-1.798-66.22-4.22-78.466 28.635-7.777 20.824-9.144 77.354 16.016 106.694 4.024 4.69 4.806 13.362 2.07 23.088-3.594 12.776-10.86 20.55-13.126 22.153-4.337-2.463-12.99-12.385-18.83-19.144-14.163-16.213-31.763-36.412-54.54-42.66-8.281-2.269-17.404-4.143-26.213-5.98-24.711-5.117-52.704-10.938-59.228-24.65-4.708-10.041-4.708-23.871-4.708-38.482 0.02-18.518 0.02-39.459-9.16-59.813-7.95-17.696-21.996-27.268-36.764-31.957 70.557-74.736 171.021-121.579 282.423-121.579z m326.685 121.11s-5.666-9.376-15.256-9.336c-9.397 0.039-17.016 7.5-17.016 16.798 0 6.135 2.444 9.298 2.444 9.298 55.612 66.025 89.228 150.724 89.228 243.12 0 81.142-25.92 156.388-69.93 218.271 2.13-12.814 3.476-26.84 3.456-42.428v-4.609c0-42.427 0.021-79.034-46.273-105.132-13.733-7.738-23.735-12.227-31.782-15.86-14.535-6.487-18.929-8.48-28.422-22.154-1.642-2.381-3.263-4.804-4.865-7.187-16.31-24.495-38.696-58.054-102.71-47.974-86.143 13.478-114.585 32.23-121.813 80.284l-0.606 4.024c-5.351 35.395-9.57 63.368 17.681 91.613 70.868 73.487 89.7 104.352 94.602 116.187 9.786 23.52 15.256 57.04 1.308 80.675-10.55 17.932-33.597 29.614-64.852 33.873-10.528 0.86-21.136 1.406-31.88 1.406-212.879 0-386.067-170.921-386.067-380.989 0-86.34 29.282-166.037 78.526-229.991 10.199 0.079 25.18 2.657 31.175 16.018 6.292 13.908 6.292 29.652 6.252 46.295 0 17.619 0 35.865 7.892 52.546 13.596 28.755 50.34 36.371 82.746 43.091 8.693 1.797 16.877 3.478 24.143 5.47 12.933 3.555 26.254 18.83 38.015 32.348 14.453 16.565 26.936 30.904 43.95 30.904 18.595 0 33.383-17.309 40.981-33.522 9.103-19.337 12.874-46.998-3.907-66.531-15.745-18.44-14.748-61.376-10.12-73.878 3.324-8.868 21.45-8.438 44.774-6.953 11.564 0.742 23.478 1.485 33.969 0.196 30.746-3.79 45.433-25.63 62.45-50.944 4.57-6.838 9.55-14.26 15.313-22.075 14.788-20.001 61.319-50.279 88.998-66.884 0 0 18.107-11.095 20.861-13.048 1.603-1.172 10.235-9.689-2.5-17.306-63.446-37.935-137.831-59.891-217.45-59.891-231.79 0-419.685 185.415-419.685 414.156S279.954 925.07 511.744 925.07 931.429 739.653 931.429 510.91c0-98.453-34.868-188.815-93-259.88z" /></svg>