<?xml version="1.0" standalone="no"?><!DOCTYPE svg PUBLIC "-//W3C//DTD SVG 1.1//EN" "http://www.w3.org/Graphics/SVG/1.1/DTD/svg11.dtd"><svg class="icon" width="200px" height="200.00px" viewBox="0 0 1024 1024" version="1.1" xmlns="http://www.w3.org/2000/svg"><path fill="#000000" d="M1022.604253 513.524237c0 13.337928-8.891952 22.22988-22.229881 22.22988s-22.22988-8.891952-22.22988-22.22988c0-228.973768-164.506115-422.379727-384.587931-462.394512-11.11494-2.222988-20.007892-13.337928-17.784904-26.675857S589.110585 4.445976 602.449513 6.668964c240.088708 44.460761 420.155739 255.650624 420.15574 506.855273zM504.63404 0c13.338928 0 22.23088 8.891952 22.23088 22.22988s-8.891952 22.23088-22.22988 22.230881C329.012985 46.683749 171.175834 148.944199 93.369253 304.558361c-4.445976 11.11494-17.783904 15.561916-28.899845 11.11494s-15.559916-17.783904-11.11494-28.899844C137.832013 113.37639 311.22908 2.224988 504.63404 0zM20.010647 371.248002c2.222988-11.11394 15.559916-17.783904 26.675857-15.559916 11.11594 4.445976 17.784904 15.559916 15.561916 26.675857-11.11594 42.237773-17.784904 86.699533-17.784904 131.159294 0 53.353713 8.891952 106.707426 26.676856 155.614162 4.445976 11.11494-2.222988 24.452868-13.337928 28.899845-11.11594 4.445976-24.453868-2.222988-28.899845-13.338928C8.894707 631.346603 0.002755 573.546914 0.002755 515.747225c0-51.129725 6.669964-97.814474 20.007892-144.499223z m911.449096 53.353713c2.222988 11.11594-4.445976 24.453868-17.784904 26.676857-11.11494 2.222988-24.452868-4.445976-26.675857-17.783905-37.791797-177.844043-193.405959-306.781349-375.694978-306.781349-51.129725 0-100.037462 8.892952-144.499223 28.899845-11.11494 4.445976-24.452868 0-28.898844-11.114941s0-24.453868 11.11494-28.899844c51.129725-22.22988 106.706426-33.345821 162.283127-33.345821 204.5199 0 377.917966 144.498222 420.155739 342.349158zM262.321343 162.283127c8.891952-6.669964 24.453868-4.446976 31.122833 4.444976 8.891952 11.11594 6.668964 24.453868-4.445976 31.122832C171.177834 280.103493 102.262205 435.717655 135.609025 595.776794c2.222988 11.11494-4.446976 24.453868-17.784904 26.676857s-24.453868-4.446976-26.676856-17.784905c-35.568809-177.844043 42.238773-349.018122 171.175078-442.386619z m-131.159294 631.344603c-2.223988 11.11494-15.561916 20.007892-26.676856 17.784904-11.11594-2.222988-20.007892-15.561916-17.784905-26.676857 6.669964-31.122833 11.11594-64.468653 11.115941-97.814473 0-28.899844-2.222988-55.575701-8.892952-84.475546 0-11.11494 8.892952-24.453868 20.007892-26.676856s24.453868 6.669964 26.676856 17.784904c6.668964 31.122833 8.891952 62.244665 8.891952 93.367498 0 35.569809-4.445976 73.360605-13.338928 106.706426z m718.044137-355.688086c2.222988 11.11594-4.445976 24.453868-17.784905 26.676856-11.11494 2.222988-24.452868-4.445976-26.676856-17.783904-17.783904-82.252557-68.913629-153.390175-140.051247-195.628948-11.11594-6.667964-13.338928-20.006892-6.669964-31.121832 6.669964-11.11494 20.007892-13.337928 31.122833-6.669964 82.253557 48.907737 140.052246 131.160294 160.059139 224.528792zM511.304004 164.506115c31.121833 0 62.244665 4.446976 91.144509 11.11594 11.11494 2.222988 17.784904 15.560916 15.560917 26.675856s-15.559916 17.784904-26.675857 15.561917c-24.453868-6.669964-51.129725-11.11494-80.029569-11.11494-166.729103 0-302.334373 135.60527-302.334373 304.557361v2.222988c0 6.668964 2.222988 28.899844 6.668964 68.914629 2.222988 11.11494-6.669964 24.452868-17.784905 24.452868-11.11494 2.222988-24.452868-6.668964-24.452868-17.783904-6.669964-42.237773-8.892952-66.691641-8.892952-77.806581 0-191.181971 155.614163-346.796134 346.796134-346.796134zM720.268879 344.572146c6.669964 8.891952 6.669964 24.453868-4.445976 31.122832-8.891952 6.669964-24.453868 6.669964-31.122832-4.445976-42.237773-51.129725-104.483438-82.252557-173.397067-82.252557-122.268342 0-222.304804 100.036462-222.304804 222.304804v13.337928c0 11.11494 2.222988 20.007892 2.222988 28.899844 2.222988 8.891952 2.222988 17.783904 4.445976 24.452869 4.445976 11.11594-4.445976 24.453868-15.561916 26.676856-11.11494 4.445976-24.452868-4.445976-26.675857-15.560916-2.222988-8.892952-4.445976-17.784904-6.669964-28.899844-2.221988-11.11494-2.221988-22.22988-4.445976-33.345821v-15.560916c0-148.944199 120.045354-268.988553 266.766565-268.988553 84.475545 4.445976 160.059139 40.014785 211.188863 102.25945z m-26.676856 137.829258c2.223988 11.11494-6.668964 24.453868-17.783904 24.453869-11.11494 2.222988-24.453868-6.669964-24.453869-17.784905-11.11494-68.914629-71.137617-117.821366-140.051246-117.821366-15.561916 0-33.345821 2.222988-46.684749 8.891953-11.11494 4.445976-24.452868-2.222988-28.899845-13.337929-4.445976-11.11594 2.223988-24.453868 13.338929-28.899844 20.007892-6.669964 40.014785-11.11494 62.245665-11.11494 91.14451 0 168.951091 66.690641 182.289019 155.613162z m-324.564254-91.145509c8.891952-8.891952 22.22988-11.11494 31.122833-2.222988s11.11494 22.23088 2.222988 31.122832c-22.22988 24.453868-33.345821 57.799689-33.345821 91.14551v13.337928c0 8.891952 2.222988 20.007892 4.445976 28.899844s4.445976 17.783904 6.669965 24.452869c4.444976 11.11594-2.223988 24.453868-13.339929 28.899844-11.11494 4.445976-24.452868-2.222988-28.898844-13.337928-2.222988-8.891952-4.445976-20.007892-6.669964-31.122832-2.221988-11.11494-2.221988-22.22988-4.444976-33.345821v-15.560916c-2.222988-44.460761 15.560916-86.699533 42.237772-122.268342zM611.339465 491.293356c2.222988 11.11494-4.445976 24.453868-17.783904 26.676857-11.11494 2.222988-24.453868-4.445976-26.676856-17.784904-4.445976-26.675856-28.899844-44.459761-55.575701-44.459761-31.122833 0-55.576701 24.452868-55.576701 55.575701v8.891952c0 6.668964 2.222988 13.337928 2.222988 22.22988 2.222988 11.11594-4.445976 24.453868-17.783904 26.676857-11.11594 2.222988-24.453868-4.445976-26.676857-17.783905-2.222988-15.561916-4.445976-28.899844-4.445976-37.791796 0-55.576701 44.460761-100.037462 100.037462-100.037462 51.129725-2.222988 93.367498 31.122833 102.259449 77.806581z m349.018122 260.096601c0 13.337928-11.11494 22.22988-22.22988 20.007892-13.337928 0-22.22988-11.11594-20.007892-22.23088 0-17.784904 2.223988-35.568809 2.223988-53.352713v-24.453868c0-13.337928 8.891952-22.22988 22.22988-22.229881s22.22988 8.891952 22.229881 22.229881v24.453868c-4.444976 17.783904-4.444976 37.791797-4.444977 55.575701z m-4.445976-173.398067c2.223988 11.11594-8.891952 22.23088-20.006892 24.453868s-22.22988-8.891952-24.453868-20.006892c-4.445976-48.907737-13.337928-100.037462-22.229881-148.944199-2.222988-11.11594 4.445976-24.453868 17.783905-26.676856 11.11494-2.222988 24.453868 4.445976 26.676856 17.783904 8.891952 51.129725 17.783904 102.26045 22.22988 153.390175zM864.768102 880.326263c-2.222988 11.11594-13.337928 20.007892-24.453869 17.784904-11.11494-2.222988-20.006892-13.337928-17.783904-24.453868 8.891952-57.799689 13.337928-117.821366 13.337928-177.843043 0-84.476545-8.891952-166.729103-26.675856-246.758672-2.222988-11.11494 4.445976-24.453868 17.783904-26.676857 11.11494-2.222988 24.453868 4.445976 26.676857 17.784905 20.006892 84.475545 28.899844 168.951091 28.899844 255.650624-4.446976 60.021677-8.892952 122.267342-17.784904 184.512007z m-102.25945 68.914629c-2.223988 11.11594-15.561916 17.784904-26.676856 15.561917-11.11594-2.222988-17.784904-15.561916-15.561917-26.676857 22.22988-82.252557 35.569809-168.952091 35.569809-255.650624 0-80.029569-8.892952-157.836151-28.899845-233.419744-2.223988-11.11494 4.444976-24.453868 15.559917-26.676857 11.11594-2.222988 24.453868 4.445976 26.676856 15.561917 20.007892 77.806581 28.899844 160.059139 28.899845 242.311696 0 93.368498-11.11494 182.290019-35.568809 268.988552z m-102.26045 44.460761c-4.446976 11.11594-17.784904 17.784904-28.899844 13.338928-11.11494-4.445976-17.784904-17.784904-13.338928-28.899844 33.345821-95.590486 51.129725-197.850935 51.129724-302.334373 0-62.245665-6.667964-124.49033-17.783904-184.513008-2.222988-11.11494 4.445976-24.453868 17.784904-26.676856 11.11494-2.222988 24.452868 4.446976 26.676857 17.784904 13.337928 62.245665 20.006892 126.713318 20.006892 193.40496-2.222988 108.929414-20.006892 215.63584-55.575701 317.895289z m-91.145509 15.561916c-4.445976 11.11494-17.783904 17.783904-28.899845 13.337929-11.11494-4.445976-17.783904-17.783904-13.337928-28.899845 28.899844-68.913629 46.683749-142.274234 55.576701-217.858828 2.222988-11.11494 13.337928-20.006892 24.452868-20.006892 11.11494 2.222988 20.007892 13.337928 20.007893 24.453868-8.892952 77.806581-28.899844 155.613163-57.799689 228.973768z m62.245665-326.788241c0 13.338928-8.891952 22.22988-22.229881 22.22988s-22.23088-8.890952-22.23088-22.22988c0-62.244665-6.669964-122.267342-20.007892-182.289019-2.222988-11.11594 4.445976-24.453868 17.784904-26.676857 11.11494-2.222988 24.452868 4.445976 26.675856 17.783904C624.679394 553.539021 631.349358 618.006675 631.349358 682.476328z m-148.944199 326.788241c-4.445976 11.11494-17.784904 17.783904-28.899844 13.337929-11.11494-4.445976-17.783904-17.783904-13.337928-28.899845 0-2.222988 2.222988-4.445976 4.445976-8.891952 2.222988-6.668964 6.668964-15.560916 8.891952-22.229881v-2.222988c4.445976-8.892952 6.669964-17.784904 8.891952-22.23088 4.445976-11.11494 15.561916-17.783904 28.899844-13.337928 11.11494 4.445976 17.784904 15.560916 13.337929 28.899844-2.222988 6.668964-4.445976 13.337928-8.891953 24.452869v2.222988c-2.222988 6.669964-6.668964 15.561916-8.891952 22.22988-2.222988 0-4.445976 4.446976-4.445976 6.669964z m44.460761-144.498222c-2.222988 11.11494-15.560916 20.007892-26.676856 17.784904-11.11494-2.223988-20.006892-15.561916-17.783905-26.676856 13.337928-60.022677 20.006892-120.044354 20.006893-182.290019 0-51.129725-4.445976-102.25945-13.337929-153.390175-2.222988-11.11494 6.669964-24.453868 17.784905-26.676857 11.11494-2.222988 24.452868 6.669964 26.675856 17.784905 8.891952 53.352713 15.561916 106.705426 15.561916 162.282127 0 64.468653-6.669964 128.936306-22.23088 191.181971zM397.928614 991.478665c-4.446976 11.11594-17.784904 15.561916-28.899845 11.11594s-15.561916-17.784904-11.11494-28.899844c44.459761-95.591486 66.690641-200.073923 66.690641-306.78035 0-40.014785-2.222988-77.806581-8.891952-117.821366-2.222988-11.11594 6.669964-24.453868 17.784904-24.453868 11.11494-2.222988 24.452868 6.669964 24.452869 17.783904 6.669964 40.015785 8.891952 82.253557 8.891952 124.49133 2.223988 113.37539-22.22988 222.304804-68.913629 324.564254z m-77.806582-28.899845c-6.669964 11.11594-20.007892 15.561916-28.899844 8.892953s-15.561916-20.007892-8.891952-28.899845c40.014785-80.029569 62.244665-171.174079 62.244665-262.318588 0-31.123833-2.222988-62.246665-8.891952-93.369498-2.222988-11.11494 6.669964-24.452868 17.783904-26.675856 11.11594-2.222988 24.453868 6.669964 26.676857 17.783904 6.669964 33.345821 8.891952 66.691641 8.891952 100.037462 0 102.25945-24.452868 200.073923-68.91363 284.550468z m-15.561916-231.196755c-2.222988 13.338928-11.11494 22.23088-24.453868 20.007892s-22.22988-11.11494-20.006893-24.453869c2.222988-15.560916 2.222988-33.345821 2.222988-48.906736 0-31.122833-2.222988-62.245665-6.669964-91.14451-2.221988-11.11594 6.669964-24.453868 17.784905-26.676856 11.11594-2.222988 24.453868 6.669964 26.676856 17.783904 4.445976 33.345821 8.891952 64.469653 8.891952 97.814474-2.222988 20.007892-4.445976 37.791797-4.445976 55.575701zM253.431391 922.565036c-6.669964 11.11494-17.784904 15.560916-31.122832 11.11494-11.11494-4.445976-15.560916-17.784904-11.11494-28.899844 13.337928-28.899844 24.452868-57.799689 31.121832-88.921522 2.223988-11.11594 15.561916-20.007892 26.676857-15.561916s20.007892 15.561916 15.561916 26.676856c-6.669964 31.122833-17.784904 64.468653-31.122833 95.591486z m-64.468653-55.576701c-4.445976 11.11494-17.783904 17.784904-28.899844 11.11494s-17.783904-17.783904-11.11494-28.899844c22.22988-53.352713 33.345821-111.151402 33.34582-168.951091 0-31.122833-2.222988-60.021677-8.891952-91.14451-4.445976-11.11594 4.445976-22.22988 15.560916-24.453868 11.11494-2.222988 24.453868 4.445976 26.676857 17.784904 6.668964 33.344821 8.891952 64.467653 8.891952 100.036462 2.222988 62.245665-11.11494 126.714318-35.568809 184.513007z" /></svg>