<?xml version="1.0" standalone="no"?><!DOCTYPE svg PUBLIC "-//W3C//DTD SVG 1.1//EN" "http://www.w3.org/Graphics/SVG/1.1/DTD/svg11.dtd"><svg class="icon" width="200px" height="200.00px" viewBox="0 0 1024 1024" version="1.1" xmlns="http://www.w3.org/2000/svg"><path fill="#000000" d="M702.358 448.547c-35.044 0-63.453-35.51-63.453-79.317s28.41-79.316 63.453-79.316 63.454 35.51 63.454 79.316-28.41 79.317-63.454 79.317z m-380.718 0c-35.044 0-63.453-35.51-63.453-79.317s28.41-79.316 63.453-79.316 63.454 35.51 63.454 79.316-28.41 79.317-63.454 79.317zM512 987.897c262.831 0 475.898-213.066 475.898-475.897S774.83 36.102 512 36.102 36.102 249.17 36.102 512 249.17 987.898 512 987.898z m0 31.727C231.647 1019.624 4.376 792.354 4.376 512S231.646 4.376 512 4.376 1019.624 231.646 1019.624 512 792.354 1019.624 512 1019.624z m-285.54-444.17h571.078c0 157.698-127.84 285.537-285.538 285.537s-285.54-127.84-285.54-285.538z" /></svg>