<?xml version="1.0" standalone="no"?><!DOCTYPE svg PUBLIC "-//W3C//DTD SVG 1.1//EN" "http://www.w3.org/Graphics/SVG/1.1/DTD/svg11.dtd"><svg class="icon" width="200px" height="200.00px" viewBox="0 0 1024 1024" version="1.1" xmlns="http://www.w3.org/2000/svg"><path fill="#000000" d="M512 987.898c262.831 0 475.898-213.067 475.898-475.898S774.83 36.102 512 36.102 36.102 249.17 36.102 512 249.17 987.898 512 987.898z m0 31.726C231.647 1019.624 4.376 792.354 4.376 512S231.646 4.376 512 4.376 1019.624 231.646 1019.624 512 792.354 1019.624 512 1019.624z m-31.727-539.35V257.978c0-17.407 14.082-31.517 31.727-31.517 17.522 0 31.727 14.116 31.727 31.517v222.294H766.02c17.407 0 31.517 14.082 31.517 31.727 0 17.522-14.116 31.727-31.517 31.727H543.727V766.02c0 17.407-14.082 31.517-31.727 31.517-17.522 0-31.727-14.116-31.727-31.517V543.727H257.98c-17.407 0-31.517-14.082-31.517-31.727 0-17.522 14.116-31.727 31.517-31.727h222.294z" /></svg>