<?xml version="1.0" standalone="no"?><!DOCTYPE svg PUBLIC "-//W3C//DTD SVG 1.1//EN" "http://www.w3.org/Graphics/SVG/1.1/DTD/svg11.dtd"><svg class="icon" width="200px" height="200.00px" viewBox="0 0 1024 1024" version="1.1" xmlns="http://www.w3.org/2000/svg"><path fill="#000000" d="M512 4.376C231.643 4.376 4.376 231.65 4.376 512S231.643 1019.624 512 1019.624 1019.624 792.35 1019.624 512 792.356 4.376 512 4.376z m0 983.522c-262.832 0-475.898-213.07-475.898-475.898S249.168 36.102 512 36.102 987.898 249.172 987.898 512 774.832 987.898 512 987.898z m0-380.718c69.944 0 126.906-56.916 126.906-127.108v-158.23c0-70.192-56.819-127.108-126.906-127.108-69.944 0-126.906 56.915-126.906 127.108v158.23c0 70.191 56.819 127.108 126.906 127.108z m206.222-158.633c-17.521 0-31.727 14.205-31.727 31.726 0 96.372-78.123 174.497-174.496 174.497s-174.496-78.124-174.496-174.497c0-17.52-14.206-31.726-31.727-31.726s-31.726 14.205-31.726 31.726c0 120.664 89.804 220.336 206.222 235.858v97.27c0 17.522 14.206 31.727 31.727 31.727s31.727-14.205 31.727-31.726v-97.27c116.418-15.523 206.222-115.195 206.222-235.859 0-17.52-14.205-31.726-31.726-31.726z" /></svg>