<?xml version="1.0" standalone="no"?><!DOCTYPE svg PUBLIC "-//W3C//DTD SVG 1.1//EN" "http://www.w3.org/Graphics/SVG/1.1/DTD/svg11.dtd"><svg class="icon" width="200px" height="200.00px" viewBox="0 0 1024 1024" version="1.1" xmlns="http://www.w3.org/2000/svg"><path fill="#000000" d="M512 0C229.274 0 0 229.171 0 512c0 282.726 229.274 512 512 512 282.829 0 512-229.171 512-512S794.829 0 512 0z m202.752 309.248c28.672 28.672 49.869 61.85 63.795 97.382L620.032 558.182l30.413-297.164c23.04 12.595 44.749 28.672 64.307 48.23zM512 225.28c40.55 0 79.053 8.5 113.971 23.654l-4.915 219.239-188.62-231.629A286.722 286.722 0 0 1 512 225.28z m-202.752 83.968c28.672-28.672 61.85-49.869 97.28-63.795L558.08 403.968l-297.165-30.413c12.8-23.04 28.775-44.749 48.333-64.307zM225.28 512c0-40.55 8.5-79.053 23.654-113.971l219.239 4.915-231.629 188.62c-7.27-25.292-11.264-51.916-11.264-79.564z m83.968 202.752c-28.672-28.672-49.869-61.85-63.795-97.28L403.968 465.92l-30.413 297.165c-23.04-12.8-44.749-28.775-64.307-48.333zM512 798.72c-40.55 0-79.053-8.5-113.971-23.654l4.915-219.239 188.62 231.629A286.722 286.722 0 0 1 512 798.72z m202.752-83.968c-28.672 28.672-61.85 49.869-97.28 63.898L465.92 620.134l297.165 30.31c-12.8 23.04-28.775 44.75-48.333 64.308z m60.314-88.78l-219.239-4.916 231.629-188.62A286.722 286.722 0 0 1 798.72 512c0 40.55-8.5 79.053-23.654 113.971z" /></svg>