<?xml version="1.0" standalone="no"?><!DOCTYPE svg PUBLIC "-//W3C//DTD SVG 1.1//EN" "http://www.w3.org/Graphics/SVG/1.1/DTD/svg11.dtd"><svg class="icon" width="200px" height="200.00px" viewBox="0 0 1024 1024" version="1.1" xmlns="http://www.w3.org/2000/svg"><path fill="#000000" d="M512 416.681c-53.013 0-95.995 42.982-95.995 95.995s42.982 95.996 95.995 95.996 95.995-42.982 95.995-95.996-42.982-95.995-95.995-95.995m-351.984 0c-53.013 0-95.995 42.982-95.995 95.995s42.982 95.996 95.995 95.996 95.996-42.982 95.996-95.996-42.982-95.995-95.996-95.995m703.967 0c-53.014 0-95.996 42.982-95.996 95.995s42.982 95.996 95.996 95.996 95.995-42.982 95.995-95.996-42.982-95.995-95.995-95.995" /></svg>