<?xml version="1.0" standalone="no"?><!DOCTYPE svg PUBLIC "-//W3C//DTD SVG 1.1//EN" "http://www.w3.org/Graphics/SVG/1.1/DTD/svg11.dtd"><svg class="icon" width="200px" height="200.00px" viewBox="0 0 1024 1024" version="1.1" xmlns="http://www.w3.org/2000/svg"><path fill="#000000" d="M725.333 106.667H256c-12.8 0-21.333 8.533-21.333 21.333v448c0 12.8 8.533 21.333 21.333 21.333h70.4c6.4 2.134 87.467 25.6 123.733 87.467C460.8 704 471.467 740.267 480 776.533c12.8 51.2 23.467 98.134 46.933 123.734 12.8 12.8 32 19.2 53.334 19.2 12.8 0 23.466-2.134 36.266-6.4C663.467 896 695.467 853.333 704 797.867 714.667 716.8 693.333 640 680.533 597.333H864c36.267 0 78.933-38.4 78.933-85.333-4.266-6.4-12.8-405.333-217.6-405.333z m134.4 445.866H646.4c-6.4 0-14.933 4.267-17.067 10.667-4.266 6.4-4.266 12.8-2.133 21.333 0 0 44.8 100.267 32 206.934-6.4 55.466-42.667 74.666-57.6 78.933-21.333 6.4-40.533 2.133-44.8-2.133-14.933-14.934-27.733-61.867-36.267-104.534-10.666-40.533-19.2-76.8-34.133-102.4-44.8-76.8-145.067-104.533-149.333-106.666h-59.734V149.333h46.934v2.134c0-2.134 315.733-2.134 401.066-2.134C864 149.333 896 439.467 896 509.867c0 25.6-23.467 42.666-36.267 42.666z m-689.066-403.2c12.8 0 21.333-8.533 21.333-21.333s-10.667-21.333-21.333-21.333h-64c-12.8 0-21.334 8.533-21.334 21.333v448c0 12.8 8.534 21.333 21.334 21.333h64c12.8 0 21.333-8.533 21.333-21.333s-8.533-21.333-21.333-21.333H128V149.333h42.667z" /></svg>