<?xml version="1.0" standalone="no"?><!DOCTYPE svg PUBLIC "-//W3C//DTD SVG 1.1//EN" "http://www.w3.org/Graphics/SVG/1.1/DTD/svg11.dtd"><svg class="icon" width="200px" height="200.00px" viewBox="0 0 1024 1024" version="1.1" xmlns="http://www.w3.org/2000/svg"><path fill="#000000" d="M725.333 106.667H256c-12.8 0-21.333 8.533-21.333 21.333v448c0 12.8 8.533 21.333 21.333 21.333h70.4c10.667 4.267 89.6 27.734 123.733 87.467C460.8 704 471.467 740.267 480 776.533c12.8 51.2 23.467 98.134 46.933 123.734 12.8 12.8 32 19.2 53.334 19.2 12.8 0 23.466-2.134 36.266-6.4C663.467 896 695.467 853.333 704 797.867 714.667 716.8 693.333 640 680.533 597.333H864c36.267 0 78.933-38.4 78.933-85.333-4.266-6.4-12.8-405.333-217.6-405.333z m-554.666 0h-64c-12.8 0-21.334 8.533-21.334 21.333v448c0 12.8 8.534 21.333 21.334 21.333h64c12.8 0 21.333-8.533 21.333-21.333V128c0-12.8-10.667-21.333-21.333-21.333z" /></svg>