<?xml version="1.0" standalone="no"?><!DOCTYPE svg PUBLIC "-//W3C//DTD SVG 1.1//EN" "http://www.w3.org/Graphics/SVG/1.1/DTD/svg11.dtd"><svg class="icon" width="200px" height="200.00px" viewBox="0 0 1024 1024" version="1.1" xmlns="http://www.w3.org/2000/svg"><path fill="#000000" d="M863.328 481.34l-317.344 0.1V162.818c0-17.665-14.336-32.001-32-32.001s-32 14.336-32 32v318.401l-322.368-0.177h-0.097c-17.632 0-31.935 14.24-32 31.904-0.097 17.665 14.208 32.032 31.871 32.096l322.593 0.177v319.167c0 17.696 14.336 32.001 31.999 32.001s32-14.303 32-32V545.44l317.088-0.1h0.128c17.632 0 31.935-14.24 32-31.905s-14.238-32.031-31.87-32.095z" /></svg>