<?xml version="1.0" standalone="no"?><!DOCTYPE svg PUBLIC "-//W3C//DTD SVG 1.1//EN" "http://www.w3.org/Graphics/SVG/1.1/DTD/svg11.dtd"><svg class="icon" width="200px" height="200.00px" viewBox="0 0 1024 1024" version="1.1" xmlns="http://www.w3.org/2000/svg"><path fill="#000000" d="M512 128c169.6 0 308 138.4 308 308 0 81.6-31.2 158.4-88.8 216l-4.8 4L512 869.6 298.4 656.8l-4.8-4.8c-57.6-57.6-88.8-134.4-88.8-216C204 266.4 342.4 128 512 128m0-64c-205.6 0-372 166.4-372 372 0 101.6 40.8 194.4 107.2 261.6L512 960l264-263.2c66.4-67.2 107.2-159.2 107.2-261.6C884 230.4 717.6 64 512 64z m0 192c73.6 0 132.8 62.4 128 137.6-4.8 63.2-55.2 113.6-118.4 118.4-74.4 5.6-137.6-53.6-137.6-128 0-70.4 57.6-128 128-128" /></svg>