<?xml version="1.0" standalone="no"?><!DOCTYPE svg PUBLIC "-//W3C//DTD SVG 1.1//EN" "http://www.w3.org/Graphics/SVG/1.1/DTD/svg11.dtd"><svg class="icon" width="200px" height="200.00px" viewBox="0 0 1024 1024" version="1.1" xmlns="http://www.w3.org/2000/svg"><path fill="#000000" d="M894.481 505.727c0 49.59-9.711 97.705-28.867 143.007-18.502 43.747-44.985 83.031-78.713 116.76-33.728 33.728-73.013 60.21-116.76 78.712-45.311 19.156-93.417 28.878-143.006 28.878s-97.695-9.722-142.997-28.878c-43.757-18.501-83.031-44.984-116.77-78.713-33.728-33.728-60.21-73.012-78.712-116.759-19.157-45.302-28.868-93.417-28.868-143.007 0-49.58 9.711-97.695 28.868-142.997 18.501-43.746 44.984-83.03 78.712-116.759 33.739-33.728 73.013-60.211 116.77-78.713 45.302-19.166 93.407-28.877 142.997-28.877 52.925 0 104.009 11.01 151.828 32.745 46.192 20.978 86.909 50.797 121.016 88.609 4.39 4.86 8.647 9.854 12.78 14.97V138.443c0-11.307 9.17-20.466 20.467-20.466 11.308 0 20.466 9.159 20.466 20.466v183.643a20.445 20.445 0 0 1-5.986 14.47 20.496 20.496 0 0 1-14.48 5.996l-183.642-0.02c-11.308 0-20.467-9.17-20.467-20.467 0-11.307 9.17-20.466 20.467-20.466l132.293 0.02a326.45 326.45 0 0 0-12.29-14.48c-30.32-33.605-66.515-60.098-107.55-78.753-42.467-19.29-87.85-29.072-134.902-29.072-87.196 0-169.173 33.953-230.817 95.597-61.654 61.654-95.598 143.621-95.598 230.817s33.944 169.173 95.598 230.817c61.644 61.654 143.62 95.608 230.817 95.608s169.173-33.954 230.817-95.608c61.654-61.644 95.597-143.62 95.597-230.817 0-11.297 9.169-20.466 20.466-20.466 11.308 0 20.466 9.169 20.466 20.466z" /></svg>