<?xml version="1.0" standalone="no"?><!DOCTYPE svg PUBLIC "-//W3C//DTD SVG 1.1//EN" "http://www.w3.org/Graphics/SVG/1.1/DTD/svg11.dtd"><svg class="icon" width="200px" height="200.00px" viewBox="0 0 1024 1024" version="1.1" xmlns="http://www.w3.org/2000/svg"><path fill="#000000" d="M957.312 906.112L741.376 690.304c55.68-67.2 89.216-153.472 89.216-247.552 0-214.528-173.952-388.48-388.48-388.48s-388.48 173.952-388.48 388.48 173.952 388.48 388.48 388.48c92.544 0 177.536-32.384 244.352-86.528l160.64 159.616 0.128-0.128 55.936 55.936c14.976 14.976 39.168 14.976 54.016 0 14.976-14.848 14.976-39.04 0.128-54.016zM442.112 755.2c-172.544 0-312.448-139.904-312.448-312.448s139.904-312.448 312.448-312.448S754.56 270.208 754.56 442.752 614.656 755.2 442.112 755.2z m0 0" /></svg>