<?xml version="1.0" standalone="no"?><!DOCTYPE svg PUBLIC "-//W3C//DTD SVG 1.1//EN" "http://www.w3.org/Graphics/SVG/1.1/DTD/svg11.dtd"><svg class="icon" width="200px" height="200.00px" viewBox="0 0 1024 1024" version="1.1" xmlns="http://www.w3.org/2000/svg"><path fill="#000000" d="M630.748 658.73l-124.399-65.537-122.989 68.319 22.118-142.05-101.146-99.298 138.088-22.253 60.479-129.743 63.215 128.333 138.518 19.128-99.023 101.547 25.139 141.554zM834.869 92.963H184.376c-26.302 0-44.896 28.578-44.896 55.669v728.389c0 70.796 66.574 56.774 90.654 45.838l237.71-108.061c24.082-10.937 63.177-11.089 87.334-0.381l253.316 112.214c24.137 10.746 77.128 5.793 77.128-56.812V148.632c0-27.092-24.454-55.669-50.753-55.669z" /></svg>