<?xml version="1.0" standalone="no"?><!DOCTYPE svg PUBLIC "-//W3C//DTD SVG 1.1//EN" "http://www.w3.org/Graphics/SVG/1.1/DTD/svg11.dtd"><svg class="icon" width="200px" height="200.00px" viewBox="0 0 1024 1024" version="1.1" xmlns="http://www.w3.org/2000/svg"><path fill="#000000" d="M838.006 92.711H190.001c-22.998 0-51.455 15.453-51.455 56.471l-0.192 726.127c0 43.517 20.287 57.51 44.227 57.51 17.847 0.038 34.031-6.266 43.487-10.533l234.735-105.755c4.422-1.999 9.736-3.728 15.319-5.226v-41.21c-10.061 1.922-19.432 4.767-27.658 8.494L217.763 887.456c-6.468 2.922-17.808 8.111-25.516 5.843-7.717-2.228-17.703-11.338-17.703-29.33V163.173c0-15.684 11.312-33.292 26.005-33.292h622.894c19.116 0 26.639 16.531 26.639 30.947v707.255c0 22.602-5.63 22.373-11.118 24.139-5.027 1.617-11.302-1.96-15.647-3.498l-259.029-110.52c-5.227-2.345-10.533-4.151-15.78-5.651v40.711c1.339 0.461 2.836 0.883 4.075 1.423l255.224 112.941c6.21 2.731 17.117 4.421 25.517 4.421 24.497 0 52.954-17.068 52.954-63.967V142.26c-0.001-27.254-26.134-49.552-48.275-49.552zM302.108 419.812l139.294-22.411 61.014-130.51 63.788 129.127 139.725 19.26-99.883 102.216 25.355 142.428-125.503-65.967-124.091 68.773 22.325-143.003-102.024-99.911z m204.231 216.121l164.272 75.616-25.545-181.523 129.588-137.507-184.79-30.753-88.351-166.493-84.503 168.452-176.669 34.983 125.042 134.431-21.499 184.598 162.457-81.804z" /></svg>