<?xml version="1.0" standalone="no"?><!DOCTYPE svg PUBLIC "-//W3C//DTD SVG 1.1//EN" "http://www.w3.org/Graphics/SVG/1.1/DTD/svg11.dtd"><svg class="icon" width="200px" height="200.00px" viewBox="0 0 1024 1024" version="1.1" xmlns="http://www.w3.org/2000/svg"><path fill="#000000" d="M512 32.023c-89.699 0-319.985 159.992-415.98 159.992v415.98c0 127.994 319.985 383.982 415.98 383.982s415.98-255.988 415.98-383.982v-415.98c-95.995 0-328.582-159.992-415.98-159.992z m351.983 575.972c0 80.424-275.85 315.741-351.694 319.991-76.423-4.25-352.273-239.566-352.273-319.99V245.238c53.072-15.61 114.725-46.144 178.863-77.904C399.653 137.24 482.888 96.02 512 96.02c27.74 0 113.796 42.47 170.742 70.574 65.063 32.11 127.611 62.98 181.24 78.682v362.72z m-424.734-67.471l-97.242-72.217a21.328 21.328 0 0 0-21.307-2.4l-11.41 5.02a17.707 17.707 0 0 0-4.886 3.197c-7.214 6.65-7.676 17.892-1.027 25.108l138.89 150.72c0.564 0.61 1.164 1.187 1.794 1.728 8.94 7.676 22.409 6.65 30.08-2.289l278.863-324.785a14.006 14.006 0 0 0 2.274-3.668c3.035-7.15-0.301-15.405-7.453-18.44l-5.007-2.126a21.326 21.326 0 0 0-22.823 3.983L466.461 539.05c-7.537 6.976-18.97 7.595-27.212 1.474z" /></svg>