<?xml version="1.0" standalone="no"?><!DOCTYPE svg PUBLIC "-//W3C//DTD SVG 1.1//EN" "http://www.w3.org/Graphics/SVG/1.1/DTD/svg11.dtd"><svg class="icon" width="200px" height="200.00px" viewBox="0 0 1024 1024" version="1.1" xmlns="http://www.w3.org/2000/svg"><path fill="#000000" d="M952.786 352.8c0-0.515-0.172-0.86-0.172-1.375a27.232 27.232 0 0 0-1.548-5.333l-75.17-186.807c-12.901-38.531-48.852-62.613-93.92-62.613H255.441c-44.208 0-78.61 23.566-90.996 60.72L83.771 347.986c-0.344 1.204-0.86 2.752-1.204 4.472-5.849 18.061-8.773 36.467-8.773 55.044 0 65.194 35.779 124.71 93.232 155.33 23.566 12.728 51.432 19.093 82.738 19.093h0.173c52.464-0.172 101.144-23.222 134.343-62.613 33.026 39.219 81.19 62.097 133.654 62.44 51.949-0.343 100.113-23.393 132.967-62.612 33.2 39.563 81.88 62.44 134.687 62.44 31.995-0.171 60.205-6.88 84.115-19.953 56.593-30.962 91.684-90.135 91.684-154.64 0-18.75-3.096-37.328-8.6-54.185z m-186.463 31.135H254.409c-17.718 0-31.995-14.277-31.995-31.994s14.277-31.995 31.995-31.995h512.086c17.717 0 31.995 14.277 31.995 31.995s-14.45 31.994-32.167 31.994z m128.666 255.957c0-17.717-14.277-31.994-31.994-31.994-3.268 0-6.193 0.86-9.289 1.892-23.738 9.46-54.012 14.45-76.89 13.245-50.4-2.752-88.932-12.729-125.915-44.208-36.467 31.135-83.082 48.852-132.622 49.369-50.229-0.344-97.188-12.902-133.827-44.208-36.983 31.478-84.115 46.788-134.343 46.788h-0.172c-30.619 0-47.992-5.849-75.859-16.17-0.688-0.344-1.548-0.516-2.408-0.86-1.376-0.516-2.408-0.86-3.784-1.376 0 0-4.645-0.86-7.053-0.86-17.717 0-31.994 14.45-31.994 31.995l0.172 171.498c0 45.068 36.81 81.879 82.05 81.879l602.222-0.344c45.067-0.172 81.878-36.983 81.878-82.051l-0.172-174.595z" /></svg>