<?xml version="1.0" standalone="no"?><!DOCTYPE svg PUBLIC "-//W3C//DTD SVG 1.1//EN" "http://www.w3.org/Graphics/SVG/1.1/DTD/svg11.dtd"><svg class="icon" width="200px" height="200.00px" viewBox="0 0 1024 1024" version="1.1" xmlns="http://www.w3.org/2000/svg"><path fill="#000000" d="M832 96H192c-52.929 0-96 43.073-96 96.002v640C96 884.929 139.07 928 192 928h640c52.927 0 96-43.072 96-96v-640c0-52.93-43.071-96-96-96zM727.231 438.433L471.008 697.44c-0.064 0.064-0.193 0.096-0.257 0.193-0.096 0.063-0.096 0.192-0.192 0.256-2.05 1.984-4.576 3.2-6.945 4.545-1.183 0.672-2.143 1.696-3.392 2.176-3.84 1.536-7.904 2.336-11.967 2.336-4.096 0-8.225-0.8-12.097-2.4-1.28-0.543-2.303-1.632-3.52-2.303-2.368-1.344-4.831-2.529-6.88-4.545-0.064-0.063-0.097-0.192-0.16-0.256-0.064-0.096-0.193-0.096-0.256-0.193L299.325 567.745c-12.32-12.673-12.033-32.928 0.64-45.248 12.673-12.288 32.895-12.064 45.248 0.64l103.263 106.112 233.28-235.809c12.417-12.576 32.705-12.672 45.248-0.256 12.516 12.448 12.644 32.705 0.227 45.248z" /></svg>