<?xml version="1.0" standalone="no"?><!DOCTYPE svg PUBLIC "-//W3C//DTD SVG 1.1//EN" "http://www.w3.org/Graphics/SVG/1.1/DTD/svg11.dtd"><svg class="icon" width="200px" height="200.00px" viewBox="0 0 1024 1024" version="1.1" xmlns="http://www.w3.org/2000/svg"><path fill="#000000" d="M726.977 393.184c-12.544-12.447-32.832-12.32-45.248 0.256L448.447 629.25 345.184 523.137c-12.353-12.704-32.608-12.928-45.248-0.64-12.673 12.32-12.96 32.608-0.64 45.248l126.016 129.503c0.064 0.097 0.193 0.097 0.257 0.193 0.063 0.064 0.096 0.193 0.16 0.256 2.016 1.984 4.512 3.2 6.88 4.545 1.248 0.673 2.24 1.792 3.52 2.303 3.872 1.6 8 2.4 12.096 2.4 4.065 0 8.128-0.8 11.968-2.336 1.247-0.513 2.209-1.536 3.392-2.176 2.4-1.344 4.896-2.529 6.944-4.545 0.064-0.064 0.097-0.193 0.193-0.256 0.064-0.097 0.16-0.127 0.256-0.193l256.224-259.008c12.446-12.542 12.318-32.8-0.225-45.247zM832 928.001H192c-52.929 0-96-43.072-96-96v-640c0-52.928 43.071-96 96-96h640c52.927 0 96 43.072 96 96v640c0 52.928-43.071 96-96 96zM192 160c-17.632 0-32 14.369-32 32v640c0 17.665 14.368 32 32 32h640c17.665 0 32-14.336 32-32v-640c0-17.631-14.337-32-32-32H192z" /></svg>