<?xml version="1.0" standalone="no"?><!DOCTYPE svg PUBLIC "-//W3C//DTD SVG 1.1//EN" "http://www.w3.org/Graphics/SVG/1.1/DTD/svg11.dtd"><svg class="icon" width="200px" height="200.00px" viewBox="0 0 1024 1024" version="1.1" xmlns="http://www.w3.org/2000/svg"><path fill="#000000" d="M447.925 928.016c-1.204 0-2.408-0.172-3.44-0.172l-286.576-31.822c-51.948-1.033-93.92-43.692-93.92-95.984v-608.07c0-52.98 43.176-95.984 95.984-95.984 1.204 0 2.408 0.172 3.44 0.172l286.576 31.822c51.948 1.033 93.92 43.692 93.92 95.984V831.86c0 52.98-43.004 96.156-95.984 96.156z m-289.5-768.043c-17.03 0.86-30.447 14.793-30.447 31.995v607.898c0 17.717 14.45 31.994 31.995 31.994 1.204 0 2.408 0.172 3.44 0.172l286.06 31.823c17.03-0.86 30.446-14.793 30.446-31.995V223.962c0-17.545-14.449-31.994-31.994-31.994-1.204 0-2.408-0.172-3.44-0.172l-286.06-31.823z m450.677 764.259c-16.17 0-29.93-12.041-31.823-28.555-2.064-17.545 10.665-33.37 28.383-35.262l254.753-28.383c1.204-0.172 2.236-0.172 3.44-0.172 17.717 0 31.994-14.277 31.994-31.994V191.968c0-17.202-13.589-31.135-30.446-31.995L612.37 188.011c-17.201 2.065-33.37-10.664-35.263-28.382-2.064-17.545 10.665-33.37 28.383-35.263l255.097-28.382c1.032-0.172 2.236-0.172 3.44-0.172 52.98 0 95.984 43.175 95.984 95.984v608.07c0 52.292-41.972 94.951-93.92 95.983l-253.205 28.21c-1.376 0.173-2.58 0.173-3.784 0.173z m-201.085-566.27H199.88c-17.717 0-31.994-14.278-31.994-31.995 0-17.718 14.277-31.995 31.994-31.995h208.137c17.718 0 31.995 14.277 31.995 31.995 0 17.545-14.277 31.994-31.995 31.994z m-0.172 184.57H199.536c-17.717 0-31.994-14.277-31.994-31.994 0-17.718 14.277-31.995 31.994-31.995h208.137c17.718 0 31.995 14.277 31.995 31.995 0.172 17.717-14.105 31.995-31.823 31.995z m0.172 183.884H199.88c-17.717 0-31.994-14.278-31.994-31.995s14.277-31.995 31.994-31.995h208.137c17.718 0 31.995 14.278 31.995 31.995s-14.277 31.995-31.995 31.995z m415.93-367.595H615.812c-17.718 0-31.995-14.277-31.995-31.994 0-17.718 14.277-31.995 31.995-31.995h208.137c17.717 0 31.994 14.277 31.994 31.995 0 17.717-14.277 31.994-31.994 31.994z m0 184.744H615.812c-17.718 0-31.995-14.278-31.995-31.995s14.277-31.995 31.995-31.995h208.137c17.717 0 31.994 14.278 31.994 31.995 0 17.545-14.449 31.995-31.994 31.995z m0 183.883H615.812c-17.718 0-31.995-14.277-31.995-31.995s14.277-31.995 31.995-31.995h208.137c17.717 0 31.994 14.278 31.994 31.995s-14.277 31.995-31.994 31.995z" /></svg>