<?xml version="1.0" standalone="no"?><!DOCTYPE svg PUBLIC "-//W3C//DTD SVG 1.1//EN" "http://www.w3.org/Graphics/SVG/1.1/DTD/svg11.dtd"><svg class="icon" width="200px" height="200.00px" viewBox="0 0 1024 1024" version="1.1" xmlns="http://www.w3.org/2000/svg"><path fill="#000000" d="M764.624 614.075l-223.01 223.009a20.479 20.479 0 0 1-14.48 5.996 20.473 20.473 0 0 1-14.469-5.996l-223.02-223.02c-7.991-7.991-7.991-20.957 0-28.949s20.958-7.992 28.95 0L506.67 773.2V168.445c0-11.307 9.158-20.466 20.466-20.466 11.297 0 20.466 9.159 20.466 20.466V773.2l188.073-188.063c7.992-7.992 20.958-8.003 28.95-0.01 7.992 8.002 7.992 20.957 0 28.949z" /></svg>