<?xml version="1.0" standalone="no"?><!DOCTYPE svg PUBLIC "-//W3C//DTD SVG 1.1//EN" "http://www.w3.org/Graphics/SVG/1.1/DTD/svg11.dtd"><svg class="icon" width="200px" height="200.00px" viewBox="0 0 1024 1024" version="1.1" xmlns="http://www.w3.org/2000/svg"><path fill="#000000" d="M512 960C264.96 960 64 759.04 64 512S264.96 64 512 64s448 200.96 448 448-200.96 448-448 448z m0-832c-211.744 0-384 172.256-384 384s172.256 384 384 384 384-172.256 384-384-172.256-384-384-384zM290.368 524.353c0.033 0.127 0.193 0.256 0.256 0.383 1.536 3.616 3.649 7.072 6.592 10.048 0.033 0.033 0.064 0.033 0.096 0.064s0.033 0.063 0.064 0.096l158.912 159.36c12.48 12.512 32.704 12.576 45.248 0.063 12.513-12.48 12.544-32.705 0.064-45.248L398.272 545.503H703.33c17.665 0 32-14.337 32-32.001s-14.337-32.001-32-32.001H396.576L502.69 376.54c12.576-12.447 12.672-32.672 0.256-45.248-6.241-6.335-14.496-9.504-22.751-9.504-8.128 0-16.256 3.103-22.497 9.248L297.44 489.532c-9.44 9.38-11.809 23.172-7.073 34.82z" /></svg>