<?xml version="1.0" standalone="no"?><!DOCTYPE svg PUBLIC "-//W3C//DTD SVG 1.1//EN" "http://www.w3.org/Graphics/SVG/1.1/DTD/svg11.dtd"><svg class="icon" width="200px" height="200.00px" viewBox="0 0 1024 1024" version="1.1" xmlns="http://www.w3.org/2000/svg"><path fill="#000000" d="M512 64C264.96 64 64 264.96 64 512s200.96 448 448 448 448-200.96 448-448S759.04 64 512 64z m149.76 471.968L501.506 694.463c-6.24 6.145-14.369 9.248-22.497 9.248-8.255 0-16.512-3.169-22.751-9.504-12.416-12.576-12.32-32.8 0.256-45.248l137.408-135.905-136.288-136.671c-12.48-12.513-12.447-32.768 0.064-45.248 12.512-12.513 32.768-12.448 45.248 0.063l158.912 159.36c0.033 0.032 0.033 0.063 0.063 0.096s0.064 0.033 0.097 0.064c2.943 2.976 5.055 6.432 6.592 10.047 0.063 0.128 0.223 0.257 0.256 0.384 4.736 11.618 2.367 25.443-7.104 34.819z" /></svg>