<?xml version="1.0" standalone="no"?><!DOCTYPE svg PUBLIC "-//W3C//DTD SVG 1.1//EN" "http://www.w3.org/Graphics/SVG/1.1/DTD/svg11.dtd"><svg class="icon" width="200px" height="200.00px" viewBox="0 0 1024 1024" version="1.1" xmlns="http://www.w3.org/2000/svg"><path fill="#000000" d="M512 960C264.96 960 64 759.04 64 512S264.96 64 512 64s448 200.96 448 448-200.96 448-448 448z m0-832c-211.744 0-384 172.256-384 384s172.256 384 384 384 384-172.256 384-384-172.256-384-384-384z m156.832 373.152c-0.032-0.127-0.192-0.256-0.256-0.383-1.536-3.616-3.649-7.072-6.592-10.048-0.033-0.033-0.064-0.033-0.096-0.064-0.033-0.032-0.033-0.063-0.064-0.096l-158.912-159.36c-12.48-12.512-32.735-12.575-45.248-0.063-12.513 12.48-12.544 32.736-0.064 45.248l136.288 136.672-137.407 135.904c-12.577 12.448-12.673 32.672-0.257 45.248 6.24 6.336 14.496 9.504 22.752 9.504 8.128 0 16.256-3.103 22.496-9.247L661.728 535.97c9.504-9.379 11.873-23.204 7.104-34.819z" /></svg>