<?xml version="1.0" standalone="no"?><!DOCTYPE svg PUBLIC "-//W3C//DTD SVG 1.1//EN" "http://www.w3.org/Graphics/SVG/1.1/DTD/svg11.dtd"><svg class="icon" width="200px" height="200.00px" viewBox="0 0 1024 1024" version="1.1" xmlns="http://www.w3.org/2000/svg"><path fill="#000000" d="M896 341.333v-64a106.667 106.667 0 0 0-106.667-106.666h-128v170.666H896zM896 384H661.333v194.773a42.667 42.667 0 0 1-66.346 35.499l-82.838-55.296-83.178 55.381a42.667 42.667 0 0 1-66.304-35.52V384H128v362.667a106.667 106.667 0 0 0 106.667 106.666h554.666A106.667 106.667 0 0 0 896 746.667V384zM618.667 170.667H405.333v408.17l83.179-55.381a42.667 42.667 0 0 1 47.317 0.021l82.838 55.296V170.667z m-256 0h-128A106.667 106.667 0 0 0 128 277.333v64h234.667V170.667z m-128-42.667h554.666a149.333 149.333 0 0 1 149.334 149.333v469.334A149.333 149.333 0 0 1 789.333 896H234.667A149.333 149.333 0 0 1 85.333 746.667V277.333A149.333 149.333 0 0 1 234.667 128z m-32 384a21.333 21.333 0 0 1 0-42.667H288A21.333 21.333 0 0 1 288 512h-85.333z" /></svg>