<?xml version="1.0" standalone="no"?><!DOCTYPE svg PUBLIC "-//W3C//DTD SVG 1.1//EN" "http://www.w3.org/Graphics/SVG/1.1/DTD/svg11.dtd"><svg class="icon" width="200px" height="200.00px" viewBox="0 0 1024 1024" version="1.1" xmlns="http://www.w3.org/2000/svg"><path fill="#000000" d="M761.6 800c-19.2 0-38.4-6.4-64-12.8-19.2-6.4-25.6-25.6-19.2-38.4 6.4-19.2 25.6-25.6 38.4-19.2 19.2 6.4 32 6.4 44.8 6.4 89.6 0 160-70.4 160-160 0-76.8-51.2-140.8-128-153.6l-19.2-6.4-6.4-12.8C723.2 294.4 620.8 224 505.6 224s-224 70.4-268.8 179.2l-6.4 12.8-12.8 6.4c-76.8 12.8-128 83.2-128 153.6 0 89.6 70.4 160 160 160 12.8 0 25.6 0 44.8-6.4 19.2-6.4 32 6.4 38.4 19.2 6.4 19.2-6.4 32-19.2 38.4-25.6 6.4-44.8 12.8-64 12.8-121.6 0-224-102.4-224-224 0-102.4 70.4-185.6 160-217.6C243.2 236.8 364.8 160 505.6 160c134.4 0 262.4 76.8 320 198.4 96 25.6 160 115.2 160 217.6 0 121.6-102.4 224-224 224z m-256 128c-19.2 0-32-12.8-32-32V486.4c0-19.2 12.8-32 32-32s32 12.8 32 32V896c0 19.2-12.8 32-32 32z m140.8-256c-6.4 0-19.2-6.4-25.6-12.8L505.6 524.8 384 659.2c-12.8 12.8-32 12.8-44.8 0-12.8-12.8-12.8-32 0-44.8l140.8-160c6.4-6.4 19.2-12.8 25.6-12.8 6.4 0 19.2 6.4 25.6 12.8L672 620.8c12.8 12.8 12.8 32 0 44.8-6.4 6.4-19.2 6.4-25.6 6.4z" /></svg>