<?xml version="1.0" standalone="no"?><!DOCTYPE svg PUBLIC "-//W3C//DTD SVG 1.1//EN" "http://www.w3.org/Graphics/SVG/1.1/DTD/svg11.dtd"><svg class="icon" width="200px" height="200.00px" viewBox="0 0 1024 1024" version="1.1" xmlns="http://www.w3.org/2000/svg"><path fill="#000000" d="M994.438 273.12v448.914c0 7.193-3.797 13.876-9.978 17.57s-13.855 3.858-20.2 0.44L699 597.21c-9.947-5.352-13.671-17.765-8.32-27.722 5.363-9.946 17.775-13.671 27.732-8.32l235.094 126.594V307.38L718.411 433.973a20.463 20.463 0 0 1-20.2-0.45 20.456 20.456 0 0 1-9.977-17.57V211.966H76.214v571.22H708.7c11.307 0 20.466 9.158 20.466 20.465 0 11.298-9.159 20.467-20.466 20.467H55.749c-11.308 0-20.466-9.17-20.466-20.467V191.5c0-11.307 9.158-20.466 20.466-20.466h652.95c11.308 0 20.467 9.159 20.467 20.466v190.192L964.26 255.1a20.463 20.463 0 0 1 20.2 0.45 20.478 20.478 0 0 1 9.978 17.57z" /></svg>