<?xml version="1.0" standalone="no"?><!DOCTYPE svg PUBLIC "-//W3C//DTD SVG 1.1//EN" "http://www.w3.org/Graphics/SVG/1.1/DTD/svg11.dtd"><svg class="icon" width="200px" height="200.00px" viewBox="0 0 1024 1024" version="1.1" xmlns="http://www.w3.org/2000/svg"><path fill="#000000" d="M575.997 512C540.652 512 512 483.347 512 448.003s28.653-63.996 63.997-63.996c35.345 0 63.996 28.652 63.996 63.996S611.342 512 575.997 512zM555.82 780.895c-148.655-41.218-266.109-159.082-308.89-310.637-7.55-31.902 0.642-55.48 19.979-73.406 2.205-2.044 8.239-7.15 7.343-6.37 5.21-4.539 10.079-8.492 18.424-15.078 2.6-2.05 2.6-2.05 5.135-4.053 19.16-15.16 27.416-23.336 31.112-31.023 4.466-9.287-8.137-45.497-37.347-82.968-34.562-44.335-64.005-65.345-89.534-65.345-23.752 0-36.958 13.717-61.118 72.954-12.671 31.066-15.046 107.31-8.588 150.127 5.486 36.374 25.293 107.856 42.93 149.76 72.115 171.347 228.678 294.296 414.02 323.592 90.163 14.08 181.086 7.722 206.209-13.642 25.185-21.417 37.484-38.673 37.484-45.607 0-21.046-26.907-63.288-64.754-93.46-36.871-29.393-72.37-42.03-81.143-37.716-6.479 3.185-13.402 9.604-23.19 21.689-2.769 3.419-19.669 25.429-25.727 32.835-24.171 30.673-42.252 37.232-82.345 28.348z m32.237-68.156l0.445-0.554c4.987-6.065 22.1-28.356 25.66-32.753 15.124-18.67 28.06-30.665 44.681-38.838 37.785-18.58 94.889 1.747 149.276 45.104 51.609 41.142 88.858 99.62 88.858 143.501 0 31.375-21.608 61.694-60.024 94.36-44.156 37.548-149.838 44.938-257.599 28.11-207.3-32.768-382.378-170.256-463.073-361.988-19.729-46.874-40.958-123.49-47.225-165.04-8.023-53.189-5.323-139.87 12.61-183.84 32.905-80.68 63.813-112.782 120.376-112.782 50.197 0 94.486 31.603 140.006 89.996 42.732 54.816 62.724 112.253 44.551 150.047-9.37 19.488-22.294 32.284-49.082 53.478l-5.193 4.1c-7.58 5.982-11.824 9.429-16.044 13.104-0.081 0.071-4.912 4.16-5.865 5.042-3.076 2.851-3.216 3.256-1.555 10.404 36.386 128.807 137.046 229.819 262.396 264.622 14.366 3.165 7.593 5.649 16.801-6.073zM735.99 480c0-106.034-85.956-191.99-191.99-191.99-17.673 0-31.999-14.327-31.999-32s14.326-31.998 31.999-31.998c141.378 0 255.987 114.61 255.987 255.987 0 17.673-14.326 31.999-31.999 31.999-17.671 0.001-31.998-14.325-31.998-31.998z m159.992 0c0-194.394-157.588-351.983-351.982-351.983-17.673 0-31.999-14.327-31.999-32s14.326-31.998 31.999-31.998c229.74 0 415.98 186.24 415.98 415.98 0 17.673-14.326 31.999-31.999 31.999s-31.999-14.325-31.999-31.998z" /></svg>