<?xml version="1.0" standalone="no"?><!DOCTYPE svg PUBLIC "-//W3C//DTD SVG 1.1//EN" "http://www.w3.org/Graphics/SVG/1.1/DTD/svg11.dtd"><svg class="icon" width="200px" height="200.00px" viewBox="0 0 1024 1024" version="1.1" xmlns="http://www.w3.org/2000/svg"><path fill="#000000" d="M242.884 608.414c-8.085 0-16.17-2.924-22.362-9.117-12.729-12.385-12.901-32.51-0.688-45.24 77.922-80.158 182.335-124.194 294.144-124.194 109.401 0 212.266 42.488 289.844 119.722a31.873 31.873 0 0 1 0 45.24c-12.385 12.557-32.683 12.557-45.24 0C693.217 529.63 606.35 493.68 513.978 493.68c-94.436 0-182.507 37.156-248.216 104.757-6.365 6.709-14.621 9.977-22.878 9.977zM96.156 445.86c-8.085 0-16.341-3.097-22.534-9.29-12.557-12.384-12.557-32.682-0.172-45.239 117.314-118.346 273.846-183.539 440.528-183.539 164.446 0 319.258 63.645 436.228 179.239 12.557 12.385 12.729 32.682 0.172 45.24-12.385 12.556-32.683 12.729-45.24 0.343-104.928-103.552-243.916-160.66-391.332-160.66-149.48 0-289.844 58.484-395.116 164.617-6.02 6.192-14.277 9.289-22.534 9.289zM509.85 816.035c-7.913 0-15.653-2.924-21.674-8.6l-95.124-88.416c-12.557-11.697-13.76-31.307-2.408-44.38 30.275-35.09 73.794-55.216 119.378-55.216 47.648 0 92.543 21.674 122.99 59.517 10.665 13.417 8.945 32.854-3.956 44.207l-98.048 84.803c-6.365 5.505-13.762 8.085-21.158 8.085z m-47.304-119.378l47.82 44.552 49.368-42.66c-28.554-18.75-67.602-19.437-97.188-1.892z" /></svg>